<?xml version="1.0" standalone="no"?><!DOCTYPE svg PUBLIC "-//W3C//DTD SVG 1.1//EN" "http://www.w3.org/Graphics/SVG/1.1/DTD/svg11.dtd"><svg t="1522806674983" class="icon" style="" viewBox="0 0 1024 1024" version="1.1" xmlns="http://www.w3.org/2000/svg" p-id="1870" xmlns:xlink="http://www.w3.org/1999/xlink" width="128" height="128"><defs><style type="text/css"></style></defs><path d="M504.524 1004.593c268.009 0 485.268-217.268 485.268-485.276 0-268.001-217.258-485.26-485.268-485.26-268.008 0-485.265 217.258-485.268 485.26-0.001 268.009 217.259 485.276 485.266 485.276zM504.524 94.709c234.511 0 424.607 190.111 424.607 424.607 0 234.501-190.098 424.608-424.607 424.608-234.501 0-424.606-190.109-424.606-424.608-0.001-234.498 190.106-424.607 424.606-424.608zM477.882 656.876c7.264 7.281 17.223 13.253 26.641 11.601 9.419 1.653 19.38-4.32 26.658-11.601l232.226-232.226c11.83-11.847 11.828-31.045 0-42.892-11.847-11.847-31.054-11.848-42.902 0l-215.982 215.981-215.974-215.981c-11.845-11.847-31.052-11.847-42.9 0-11.839 11.845-11.839 31.043 0 42.892l232.23 232.226z" p-id="1871"></path></svg>